<svg id="visual" viewBox="0 0 1200 200" width="1200" height="200" xmlns="http://www.w3.org/2000/svg" xmlns:xlink="http://www.w3.org/1999/xlink" version="1.1"><rect x="0" y="0" width="1200" height="200" fill="#0f0f10"></rect><path d="M0 137L25 128.8C50 120.7 100 104.3 150 101.3C200 98.3 250 108.7 300 118.2C350 127.7 400 136.3 450 144.2C500 152 550 159 600 148C650 137 700 108 750 106C800 104 850 129 900 131.2C950 133.3 1000 112.7 1050 108.2C1100 103.7 1150 115.3 1175 121.2L1200 127L1200 0L1175 0C1150 0 1100 0 1050 0C1000 0 950 0 900 0C850 0 800 0 750 0C700 0 650 0 600 0C550 0 500 0 450 0C400 0 350 0 300 0C250 0 200 0 150 0C100 0 50 0 25 0L0 0Z" fill="#1895d9"></path><path d="M0 84L25 81.7C50 79.3 100 74.7 150 81.2C200 87.7 250 105.3 300 114C350 122.7 400 122.3 450 118.2C500 114 550 106 600 94.3C650 82.7 700 67.3 750 61.2C800 55 850 58 900 68.2C950 78.3 1000 95.7 1050 99.7C1100 103.7 1150 94.3 1175 89.7L1200 85L1200 0L1175 0C1150 0 1100 0 1050 0C1000 0 950 0 900 0C850 0 800 0 750 0C700 0 650 0 600 0C550 0 500 0 450 0C400 0 350 0 300 0C250 0 200 0 150 0C100 0 50 0 25 0L0 0Z" fill="#40a4ea"></path><path d="M0 52L25 47.8C50 43.7 100 35.3 150 39.3C200 43.3 250 59.7 300 58.7C350 57.7 400 39.3 450 32.3C500 25.3 550 29.7 600 29.5C650 29.3 700 24.7 750 30.8C800 37 850 54 900 55.7C950 57.3 1000 43.7 1050 42C1100 40.3 1150 50.7 1175 55.8L1200 61L1200 0L1175 0C1150 0 1100 0 1050 0C1000 0 950 0 900 0C850 0 800 0 750 0C700 0 650 0 600 0C550 0 500 0 450 0C400 0 350 0 300 0C250 0 200 0 150 0C100 0 50 0 25 0L0 0Z" fill="#5cb4fc"></path></svg>