<svg id="visual" viewBox="0 0 900 600" width="900" height="600" xmlns="http://www.w3.org/2000/svg" xmlns:xlink="http://www.w3.org/1999/xlink" version="1.1"><rect x="0" y="0" width="900" height="600" fill="#000000"></rect><path d="M0 86L21.5 88C43 90 86 94 128.8 93.7C171.7 93.3 214.3 88.7 257.2 82.7C300 76.7 343 69.3 385.8 71.2C428.7 73 471.3 84 514.2 86.2C557 88.3 600 81.7 642.8 79.5C685.7 77.3 728.3 79.7 771.2 80.3C814 81 857 80 878.5 79.5L900 79L900 0L878.5 0C857 0 814 0 771.2 0C728.3 0 685.7 0 642.8 0C600 0 557 0 514.2 0C471.3 0 428.7 0 385.8 0C343 0 300 0 257.2 0C214.3 0 171.7 0 128.8 0C86 0 43 0 21.5 0L0 0Z" fill="#165ee2"></path><path d="M0 49L21.5 50.8C43 52.7 86 56.3 128.8 57.7C171.7 59 214.3 58 257.2 57C300 56 343 55 385.8 55.5C428.7 56 471.3 58 514.2 60.3C557 62.7 600 65.3 642.8 68.7C685.7 72 728.3 76 771.2 76.8C814 77.7 857 75.3 878.5 74.2L900 73L900 0L878.5 0C857 0 814 0 771.2 0C728.3 0 685.7 0 642.8 0C600 0 557 0 514.2 0C471.3 0 428.7 0 385.8 0C343 0 300 0 257.2 0C214.3 0 171.7 0 128.8 0C86 0 43 0 21.5 0L0 0Z" fill="#0071e8"></path><path d="M0 57L21.5 56.7C43 56.3 86 55.7 128.8 55.7C171.7 55.7 214.3 56.3 257.2 53.8C300 51.3 343 45.7 385.8 42.5C428.7 39.3 471.3 38.7 514.2 40.2C557 41.7 600 45.3 642.8 46.5C685.7 47.7 728.3 46.3 771.2 46.2C814 46 857 47 878.5 47.5L900 48L900 0L878.5 0C857 0 814 0 771.2 0C728.3 0 685.7 0 642.8 0C600 0 557 0 514.2 0C471.3 0 428.7 0 385.8 0C343 0 300 0 257.2 0C214.3 0 171.7 0 128.8 0C86 0 43 0 21.5 0L0 0Z" fill="#0083eb"></path><path d="M0 45L21.5 41.3C43 37.7 86 30.3 128.8 30.3C171.7 30.3 214.3 37.7 257.2 39.2C300 40.7 343 36.3 385.8 35C428.7 33.7 471.3 35.3 514.2 35.5C557 35.7 600 34.3 642.8 33.3C685.7 32.3 728.3 31.7 771.2 30.3C814 29 857 27 878.5 26L900 25L900 0L878.5 0C857 0 814 0 771.2 0C728.3 0 685.7 0 642.8 0C600 0 557 0 514.2 0C471.3 0 428.7 0 385.8 0C343 0 300 0 257.2 0C214.3 0 171.7 0 128.8 0C86 0 43 0 21.5 0L0 0Z" fill="#2a93ec"></path><path d="M0 28L21.5 25C43 22 86 16 128.8 13.5C171.7 11 214.3 12 257.2 14.3C300 16.7 343 20.3 385.8 20.3C428.7 20.3 471.3 16.7 514.2 17.2C557 17.7 600 22.3 642.8 24.8C685.7 27.3 728.3 27.7 771.2 26.8C814 26 857 24 878.5 23L900 22L900 0L878.5 0C857 0 814 0 771.2 0C728.3 0 685.7 0 642.8 0C600 0 557 0 514.2 0C471.3 0 428.7 0 385.8 0C343 0 300 0 257.2 0C214.3 0 171.7 0 128.8 0C86 0 43 0 21.5 0L0 0Z" fill="#49a3ec"></path></svg>